<?xml version="1.0" encoding="UTF-8"?>
<svg width="200px" height="33px" viewBox="0 0 200 33" version="1.1" xmlns="http://www.w3.org/2000/svg" xmlns:xlink="http://www.w3.org/1999/xlink">
    <!-- Generator: Sketch 46.2 (44496) - http://www.bohemiancoding.com/sketch -->
    <title>Page 1 Copy 2</title>
    <desc>Created with Sketch.</desc>
    <defs>
        <polygon id="path-1" points="199.5825 32.4998125 199.5825 0.588125 0.0001875 0.588125 0.0001875 32.4998125"></polygon>
        <polygon id="path-3" points="0 32.5369375 199.5825 32.5369375 199.5825 0.6250625 0 0.6250625"></polygon>
    </defs>
    <g id="Page-1" stroke="none" stroke-width="1" fill="none" fill-rule="evenodd">
        <g id="Artboard" transform="translate(-967.000000, -73.000000)">
            <g id="buy">
                <g id="Page-1-Copy-2" transform="translate(967.000000, 73.000000)">
                    <g id="Group-3" transform="translate(0.000000, 0.036938)">
                        <mask id="mask-2" fill="white">
                            <use xlink:href="#path-1"></use>
                        </mask>
                        <g id="Clip-2"></g>
                        <path d="M15.9558125,1.5710625 C7.7001875,1.5710625 0.9826875,8.2873125 0.9826875,16.5435625 C0.9826875,24.8004375 7.7001875,31.5166875 15.9558125,31.5166875 L183.627688,31.5166875 C191.883938,31.5166875 198.599563,24.8004375 198.599563,16.5435625 C198.599563,8.2873125 191.883938,1.5710625 183.627688,1.5710625 L15.9558125,1.5710625 Z M183.627688,32.4998125 L15.9558125,32.4998125 C7.1576875,32.4998125 0.0001875,25.3416875 0.0001875,16.5435625 C0.0001875,7.7460625 7.1576875,0.5879375 15.9558125,0.5879375 L183.627688,0.5879375 C192.425188,0.5879375 199.582688,7.7460625 199.582688,16.5435625 C199.582688,25.3416875 192.425188,32.4998125 183.627688,32.4998125 L183.627688,32.4998125 Z" id="Fill-1" fill="#FFFFFF" mask="url(#mask-2)"></path>
                    </g>
                    <path d="M11.261,12.9699375 C11.196625,13.7430625 10.7735,14.3399375 10.315375,14.3024375 C9.8585,14.2643125 9.540375,13.6061875 9.604125,12.8311875 C9.669125,12.0574375 10.091625,11.4611875 10.550375,11.4986875 C11.006625,11.5368125 11.326,12.1955625 11.261,12.9699375" id="Fill-4" fill="#FFFFFF"></path>
                    <path d="M15.95275,23.1240625 C15.95275,23.1240625 17.239625,21.7246875 18.223375,21.6109375 C19.464625,21.4678125 19.624,21.9515625 19.54775,22.3684375 C19.472125,22.7840625 18.374,25.9621875 16.860875,26.9090625 C15.3465,27.8546875 14.287125,27.3253125 13.26525,26.7196875 C12.243375,26.1146875 12.129625,25.8115625 12.470875,25.0921875 C12.68775,24.6340625 13.144625,23.8965625 14.174,23.1240625 C14.779625,22.6703125 15.6115,22.1778125 15.914625,22.4809375 C16.1815,22.7490625 15.95275,23.1240625 15.95275,23.1240625" id="Fill-6" fill="#FFFFFF"></path>
                    <path d="M19.948125,22.6571875 C18.58125,25.8203125 17.585,27.7484375 15.275625,27.8515625 C15.249375,27.8521875 15.22375,27.8528125 15.19625,27.8528125 C13.369375,27.8528125 10.32,25.0734375 8.91125,23.1521875 C7.179375,20.7909375 6.686875,17.6521875 6.6825,17.6215625 L6.651875,17.4246875 L6.835625,17.5015625 C6.85625,17.5103125 8.884375,18.3484375 11.96,18.3484375 C12.700625,18.3484375 13.45125,18.3003125 14.1925,18.2040625 C19.26375,17.5459375 23.866875,13.5003125 23.91375,13.4590625 L24.088125,13.5903125 C24.06,13.6490625 21.3125,19.5015625 19.948125,22.6571875 M7.891875,12.6965625 C8.210625,10.8096875 9.265,9.4128125 10.278125,9.5853125 C11.29375,9.7559375 11.83625,11.3915625 11.5125,13.3084375 C11.21125,15.0903125 10.2575,16.4340625 9.294375,16.4340625 C9.2375,16.4340625 9.180625,16.4290625 9.124375,16.4203125 C8.109375,16.2484375 7.5675,14.6121875 7.891875,12.6965625 M9.84625,6.8090625 C10.834375,6.8796875 11.39375,9.4728125 11.39375,9.4728125 C11.39375,9.4728125 10.65125,8.1103125 9.84625,8.0484375 C9.040625,7.9859375 8.235,8.9153125 8.235,8.9153125 C8.421875,8.2334375 8.979375,6.7471875 9.84625,6.8090625 M14.429375,12.9415625 C15.483125,12.1990625 17.34125,11.2659375 18.951875,11.2071875 C19.806875,11.1765625 20.28,11.2859375 20.28,11.8471875 C20.28,12.6521875 18.58,13.7478125 18.58,13.7478125 C18.58,13.7478125 19.8825,12.3840625 19.261875,12.1365625 C18.43875,11.8071875 17.4475,11.9909375 15.916875,12.5703125 C14.120625,13.2515625 12.81875,14.7384375 12.81875,14.7384375 C12.81875,14.7384375 13.376875,13.6853125 14.429375,12.9415625 M17.96125,6.3759375 C18.89125,6.0659375 19.63375,8.7915625 19.63375,8.7915625 C19.63375,8.7915625 19.075625,7.3659375 18.146875,7.4903125 C17.2175,7.6140625 16.350625,9.1009375 16.350625,9.1009375 C16.350625,9.1009375 17.0325,6.6853125 17.96125,6.3759375 M16.15375,4.4096875 C9.385625,4.4096875 3.899375,9.8590625 3.899375,16.5809375 C3.899375,23.3034375 9.385625,28.7521875 16.15375,28.7521875 C22.921875,28.7521875 28.40875,23.3034375 28.40875,16.5809375 C28.40875,9.8590625 22.921875,4.4096875 16.15375,4.4096875" id="Fill-8" fill="#FFFFFF"></path>
                    <path d="M37.0635625,15.81575 L41.1373125,15.81575 C43.1623125,15.81575 45.1866875,15.5195 45.1866875,13.002 C45.1866875,10.68075 43.3835625,10.31075 41.5323125,10.31075 L37.0635625,10.31075 L37.0635625,15.81575 Z M42.3223125,7.792 C45.4835625,7.792 48.2485625,9.05075 48.2485625,12.680125 C48.2485625,14.80325 47.1866875,16.3595 45.3348125,17.001375 C47.5816875,17.495125 47.8041875,19.19825 47.9516875,21.00075 C48.1241875,23.0995 48.1741875,24.58075 48.8898125,25.370125 L45.5823125,25.370125 C45.1366875,24.70325 45.1129375,23.4945 45.0129375,21.865125 C44.8416875,19.0995 44.1491875,18.111375 41.1623125,18.111375 L37.0635625,18.111375 L37.0635625,25.370125 L34.0029375,25.370125 L34.0029375,7.792 L42.3223125,7.792 Z" id="Fill-10" fill="#FFFFFF"></path>
                    <path d="M54.019125,16.532 C54.019125,20.63075 56.09225,23.19825 59.401,23.19825 C62.611,23.19825 64.685375,20.580125 64.685375,16.556375 C64.685375,12.532625 62.611,9.9645 59.352875,9.9645 C56.117875,9.9645 54.019125,12.557625 54.019125,16.532 M67.796,16.581375 C67.796,22.062 64.364125,25.790125 59.352875,25.790125 C54.316,25.790125 50.9085,22.062 50.9085,16.581375 C50.9085,11.421375 54.019125,7.372 59.401,7.372 C64.364125,7.372 67.796,11.125125 67.796,16.581375" id="Fill-12" fill="#FFFFFF"></path>
                    <polygon id="Fill-14" fill="#FFFFFF" points="83.557125 10.235875 73.31025 22.704625 83.853375 22.704625 83.853375 25.37025 69.409625 25.37025 69.409625 22.828375 79.582125 10.459 70.15025 10.459 70.15025 7.7915 83.557125 7.7915"></polygon>
                    <polygon id="Fill-16" fill="#FFFFFF" points="98.5809375 10.383625 88.9790625 10.383625 88.9790625 15.051125 97.8896875 15.051125 97.8896875 17.543625 88.9790625 17.543625 88.9790625 22.72925 98.7290625 22.72925 98.7290625 25.3705 85.9159375 25.3705 85.9159375 7.79175 98.5809375 7.79175"></polygon>
                    <polygon id="Fill-18" fill="#FFFFFF" points="114.257187 10.4586875 108.653437 10.4586875 108.653437 25.3699375 105.568437 25.3699375 105.568437 10.4586875 99.9640625 10.4586875 99.9640625 7.7918125 114.257187 7.7918125"></polygon>
                    <polygon id="Fill-20" fill="#FFFFFF" points="124.0625 14.8031875 131.54375 25.3700625 127.71875 25.3700625 121.940625 16.9513125 119.421875 19.4700625 119.421875 25.3700625 116.36 25.3700625 116.36 7.7919375 119.421875 7.7919375 119.421875 15.7669375 127.2 7.7919375 131.099375 7.7919375"></polygon>
                    <path d="M139.56175,10.9775 L136.82175,18.38375 L142.179875,18.38375 L139.56175,10.9775 Z M147.981125,25.37 L144.673,25.37 L142.993,20.70375 L136.032375,20.70375 L134.303,25.37 L131.118,25.37 L137.908,7.7675 L141.191125,7.7675 L147.981125,25.37 Z" id="Fill-22" fill="#FFFFFF"></path>
                    <mask id="mask-4" fill="white">
                        <use xlink:href="#path-3"></use>
                    </mask>
                    <g id="Clip-25"></g>
                    <polygon id="Fill-24" fill="#FFFFFF" mask="url(#mask-4)" points="149.736875 25.3700625 153.105 25.3700625 153.105 22.0263125 149.736875 22.0263125"></polygon>
                    <path d="M171.033938,18.534875 C171.033938,23.388625 168.607687,25.717375 163.853313,25.717375 C158.849562,25.717375 156.571438,23.36425 156.571438,18.4855 L156.571438,7.737375 L159.667687,7.737375 L159.667687,19.104875 C159.667687,21.82925 161.127687,23.166125 163.901438,23.166125 C167.418312,23.166125 167.938938,21.134875 167.938938,18.138625 L167.938938,7.737375 L171.033938,7.737375 L171.033938,18.534875 Z" id="Fill-26" fill="#FFFFFF" mask="url(#mask-4)"></path>
                    <path d="M181.013187,10.9316875 L178.263188,18.3610625 L183.638187,18.3610625 L181.013187,10.9316875 Z M189.457562,25.3704375 L186.139437,25.3704375 L184.455062,20.6891875 L177.470063,20.6891875 L175.737563,25.3704375 L172.543187,25.3704375 L179.353813,7.7123125 L182.647562,7.7123125 L189.457562,25.3704375 Z" id="Fill-27" fill="#FFFFFF" mask="url(#mask-4)"></path>
                </g>
            </g>
        </g>
    </g>
</svg>